P3
# feep.ppm
2 2
15
 0  0  0    0  0  0 
 0  0  0    0 15  7
 